<mxfile host="app.diagrams.net" agent="Mozilla/5.0 (Windows NT 10.0; Win64; x64) AppleWebKit/537.36 (KHTML, like Gecko) Chrome/140.0.0.0 Safari/537.36" version="28.2.3">
  <diagram id="CV-7iMhTwDsSw8HW35_V" name="Page-2">
    <mxGraphModel dx="735" dy="388" grid="1" gridSize="10" guides="1" tooltips="1" connect="1" arrows="1" fold="1" page="1" pageScale="1" pageWidth="1100" pageHeight="850" math="0" shadow="0">
      <root>
        <mxCell id="0" />
        <mxCell id="1" parent="0" />
        <mxCell id="OYU8KybXDZn0yK4VQ5Yo-1" value="Daniel" style="whiteSpace=wrap;html=1;align=center;" parent="1" vertex="1">
          <mxGeometry x="340" y="250" width="100" height="40" as="geometry" />
        </mxCell>
        <mxCell id="OYU8KybXDZn0yK4VQ5Yo-3" value="is" style="shape=rhombus;perimeter=rhombusPerimeter;whiteSpace=wrap;html=1;align=center;" parent="1" vertex="1">
          <mxGeometry x="535" y="240" width="120" height="60" as="geometry" />
        </mxCell>
        <mxCell id="H6HtzpZKu-8QVZK8X9g0-1" value="Hair" style="whiteSpace=wrap;html=1;align=center;" parent="1" vertex="1">
          <mxGeometry x="820" y="250" width="100" height="40" as="geometry" />
        </mxCell>
        <mxCell id="yz787PNUihDiX31Gsf9V-1" style="edgeStyle=orthogonalEdgeStyle;rounded=0;orthogonalLoop=1;jettySize=auto;html=1;entryX=1;entryY=0.5;entryDx=0;entryDy=0;endArrow=blockThin;endFill=1;exitX=0;exitY=0.5;exitDx=0;exitDy=0;" parent="1" source="OYU8KybXDZn0yK4VQ5Yo-3" target="OYU8KybXDZn0yK4VQ5Yo-1" edge="1">
          <mxGeometry relative="1" as="geometry">
            <mxPoint x="530" y="280" as="sourcePoint" />
            <mxPoint x="450" y="270" as="targetPoint" />
          </mxGeometry>
        </mxCell>
        <mxCell id="gDuCu2va2YJxOEtjGxtn-1" style="edgeStyle=orthogonalEdgeStyle;rounded=0;orthogonalLoop=1;jettySize=auto;html=1;exitX=0;exitY=0.5;exitDx=0;exitDy=0;entryX=1;entryY=0.5;entryDx=0;entryDy=0;endArrow=none;endFill=0;startArrow=open;startFill=0;" parent="1" source="H6HtzpZKu-8QVZK8X9g0-1" target="OYU8KybXDZn0yK4VQ5Yo-3" edge="1">
          <mxGeometry relative="1" as="geometry">
            <mxPoint x="715" y="330" as="sourcePoint" />
            <mxPoint x="620" y="330" as="targetPoint" />
          </mxGeometry>
        </mxCell>
        <mxCell id="ZXD9U5w972xmh9cBtdyo-1" value="Daniel" style="whiteSpace=wrap;html=1;align=center;" parent="1" vertex="1">
          <mxGeometry x="350" y="440" width="100" height="40" as="geometry" />
        </mxCell>
        <mxCell id="ZXD9U5w972xmh9cBtdyo-2" value="twas" style="shape=rhombus;perimeter=rhombusPerimeter;whiteSpace=wrap;html=1;align=center;" parent="1" vertex="1">
          <mxGeometry x="545" y="430" width="120" height="60" as="geometry" />
        </mxCell>
        <mxCell id="ZXD9U5w972xmh9cBtdyo-3" value="Hair" style="whiteSpace=wrap;html=1;align=center;" parent="1" vertex="1">
          <mxGeometry x="830" y="440" width="100" height="40" as="geometry" />
        </mxCell>
        <mxCell id="ZXD9U5w972xmh9cBtdyo-4" value="1..*" style="edgeStyle=orthogonalEdgeStyle;rounded=0;orthogonalLoop=1;jettySize=auto;html=1;entryX=1;entryY=0.5;entryDx=0;entryDy=0;exitX=0;exitY=0.5;exitDx=0;exitDy=0;endArrow=none;endFill=0;startArrow=none;startFill=0;" parent="1" source="ZXD9U5w972xmh9cBtdyo-2" target="ZXD9U5w972xmh9cBtdyo-1" edge="1">
          <mxGeometry relative="1" as="geometry">
            <mxPoint x="540" y="470" as="sourcePoint" />
            <mxPoint x="460" y="460" as="targetPoint" />
          </mxGeometry>
        </mxCell>
        <mxCell id="ZXD9U5w972xmh9cBtdyo-5" style="edgeStyle=orthogonalEdgeStyle;rounded=0;orthogonalLoop=1;jettySize=auto;html=1;exitX=0;exitY=0.5;exitDx=0;exitDy=0;entryX=1;entryY=0.5;entryDx=0;entryDy=0;endArrow=none;endFill=0;startArrow=none;startFill=0;" parent="1" source="ZXD9U5w972xmh9cBtdyo-3" target="ZXD9U5w972xmh9cBtdyo-2" edge="1">
          <mxGeometry relative="1" as="geometry">
            <mxPoint x="725" y="520" as="sourcePoint" />
            <mxPoint x="630" y="520" as="targetPoint" />
          </mxGeometry>
        </mxCell>
        <mxCell id="tP3ULz3W575esNjjAin_-5" value="name" style="ellipse;whiteSpace=wrap;html=1;" parent="1" vertex="1">
          <mxGeometry x="30" y="220" width="120" height="80" as="geometry" />
        </mxCell>
        <mxCell id="tP3ULz3W575esNjjAin_-6" value="name" style="ellipse;whiteSpace=wrap;html=1;" parent="1" vertex="1">
          <mxGeometry x="20" y="410" width="120" height="80" as="geometry" />
        </mxCell>
        <mxCell id="tP3ULz3W575esNjjAin_-7" value="strands" style="ellipse;whiteSpace=wrap;html=1;" parent="1" vertex="1">
          <mxGeometry x="1090" y="300" width="120" height="80" as="geometry" />
        </mxCell>
        <mxCell id="tP3ULz3W575esNjjAin_-8" value="strands" style="ellipse;whiteSpace=wrap;html=1;" parent="1" vertex="1">
          <mxGeometry x="1050" y="470" width="120" height="80" as="geometry" />
        </mxCell>
        <mxCell id="tP3ULz3W575esNjjAin_-9" style="edgeStyle=orthogonalEdgeStyle;rounded=0;orthogonalLoop=1;jettySize=auto;html=1;exitX=0.5;exitY=0;exitDx=0;exitDy=0;entryX=1;entryY=0.25;entryDx=0;entryDy=0;endArrow=none;endFill=0;" parent="1" source="tP3ULz3W575esNjjAin_-7" target="H6HtzpZKu-8QVZK8X9g0-1" edge="1">
          <mxGeometry relative="1" as="geometry">
            <mxPoint x="1150" y="270" as="sourcePoint" />
            <mxPoint x="1020" y="190" as="targetPoint" />
          </mxGeometry>
        </mxCell>
        <mxCell id="tP3ULz3W575esNjjAin_-10" style="edgeStyle=orthogonalEdgeStyle;rounded=0;orthogonalLoop=1;jettySize=auto;html=1;exitX=0.5;exitY=0;exitDx=0;exitDy=0;entryX=1;entryY=0.5;entryDx=0;entryDy=0;endArrow=none;endFill=0;" parent="1" source="tP3ULz3W575esNjjAin_-8" target="ZXD9U5w972xmh9cBtdyo-3" edge="1">
          <mxGeometry relative="1" as="geometry">
            <mxPoint x="1080" y="580" as="sourcePoint" />
            <mxPoint x="950" y="500" as="targetPoint" />
          </mxGeometry>
        </mxCell>
        <mxCell id="tP3ULz3W575esNjjAin_-12" style="edgeStyle=orthogonalEdgeStyle;rounded=0;orthogonalLoop=1;jettySize=auto;html=1;exitX=1;exitY=0.5;exitDx=0;exitDy=0;entryX=0;entryY=0.75;entryDx=0;entryDy=0;endArrow=none;endFill=0;" parent="1" source="tP3ULz3W575esNjjAin_-5" target="OYU8KybXDZn0yK4VQ5Yo-1" edge="1">
          <mxGeometry relative="1" as="geometry">
            <mxPoint x="300" y="160" as="sourcePoint" />
            <mxPoint x="490" y="150" as="targetPoint" />
          </mxGeometry>
        </mxCell>
        <mxCell id="tP3ULz3W575esNjjAin_-13" style="edgeStyle=orthogonalEdgeStyle;rounded=0;orthogonalLoop=1;jettySize=auto;html=1;exitX=1;exitY=0.5;exitDx=0;exitDy=0;entryX=0;entryY=0.5;entryDx=0;entryDy=0;endArrow=none;endFill=0;" parent="1" source="tP3ULz3W575esNjjAin_-6" target="ZXD9U5w972xmh9cBtdyo-1" edge="1">
          <mxGeometry relative="1" as="geometry">
            <mxPoint x="150" y="415" as="sourcePoint" />
            <mxPoint x="340" y="435" as="targetPoint" />
          </mxGeometry>
        </mxCell>
      </root>
    </mxGraphModel>
  </diagram>
</mxfile>
